# xmcd
#
# Track frame offsets: 
#        150
#        22607
#        48241
#        70596
#        87070
#        126077
#        156793
#        184826
#        216530
#        241751
#        269156
#        293300
#
# Disc length: 4422 seconds
#
# Revision: 0
# Processed by: cddbd v1.5.2PL0 Copyright (c) Steve Scherf et al.
# Submitted via: ExactAudioCopy v0.95b4
#
DISCID=9c11440c
DTITLE=Various Artist - 5th Annual Blues for the Cure - Volume 3
DYEAR=2004
DGENRE=Blues
TTITLE0=Aaron King Trio - Your Gonna Need Another Favor
TTITLE1=Aaron King Trio - featuring Rusty Zinn - 24 Hours of the Day
TTITLE2=Daniel Castro - All Your Love
TTITLE3=Daniel Castro - That's What Love Will Make You Do
TTITLE4=Daniel Castro - I'll Play the Blues for You
TTITLE5=Mick Martin and the Blues Rockers - Riding in the Moonlight
TTITLE6=Mick Martin and the Blues Rockers - featuring Dana Moret - Way D
TTITLE6=own South
TTITLE7=Mercy Me (Band) - At Last
TTITLE8=Mercy Me (Band) - I'll Take You There
TTITLE9=Pailer, Fratis and Taylor - featuring Stacie Eakes - She Talks T
TTITLE9=o Angels
TTITLE10=Pailer, Fratis and Taylor - Sweet Sixteen
TTITLE11=Pailer, Fratis and Taylor - Old Love
EXTD=
EXTT0=
EXTT1=
EXTT2=
EXTT3=
EXTT4=
EXTT5=
EXTT6=
EXTT7=
EXTT8=
EXTT9=
EXTT10=
EXTT11=
PLAYORDER=
